<?xml version="1.0" standalone="no"?><!-- Generator: Gravit.io --><svg xmlns="http://www.w3.org/2000/svg" xmlns:xlink="http://www.w3.org/1999/xlink" style="isolation:isolate" viewBox="0 0 841.89 595.276" width="841.89" height="595.276"><defs><clipPath id="_clipPath_jfYur86LvcbwG5hxCtvrJSpYx4LyHZti"><rect width="841.89" height="595.276"/></clipPath></defs><g clip-path="url(#_clipPath_jfYur86LvcbwG5hxCtvrJSpYx4LyHZti)"><rect x="125.61" y="116.507" width="161.575" height="310.903" transform="matrix(1,0,0,1,0,0)" fill="rgb(235,235,235)"/><rect x="143.974" y="176.348" width="123.675" height="155.865" transform="matrix(1,0,0,1,0,0)" fill="rgb(209,209,209)"/><rect x="570.818" y="113.813" width="161.575" height="310.903" transform="matrix(1,0,0,1,0,0)" fill="rgb(235,235,235)"/><rect x="589.768" y="176.348" width="123.675" height="155.865" transform="matrix(1,0,0,1,0,0)" fill="rgb(209,209,209)"/><rect x="337.596" y="116.507" width="181.417" height="310.903" transform="matrix(1,0,0,1,0,0)" fill="rgb(235,235,235)"/><g transform="matrix(1,0,0,1,174.861,130.682)"><text transform="matrix(1,0,0,1,0.15,20.22)" style="font-family:&quot;Nunito Sans&quot;;font-weight:300;font-size:20px;font-style:normal;fill:#9900ff;stroke:none;">Client</text></g><g transform="matrix(1,0,0,1,156.205,266.872)"><text transform="matrix(1,0,0,1,20.844,17.102)" style="font-family:&quot;Open Sans&quot;;font-weight:700;font-size:16px;font-style:normal;fill:#009688;stroke:none;">Epigoni</text><text transform="matrix(1,0,0,1,0.426,38.891)" style="font-family:&quot;Open Sans&quot;;font-weight:700;font-size:16px;font-style:normal;fill:#009688;stroke:none;">Applications</text></g><path d=" M 231.406 399.654 C 231.406 401.169 230.181 402.394 228.666 402.394 L 212.027 402.394 C 210.512 402.394 209.287 401.169 209.287 399.654 L 209.287 356.692 C 209.287 355.519 210.248 354.558 211.421 354.558 L 229.272 354.558 C 230.445 354.558 231.406 355.519 231.406 356.692 L 231.406 362.054 L 233.488 362.054 L 233.488 356.692 C 233.488 354.36 231.591 352.476 229.272 352.476 L 211.421 352.476 C 209.089 352.476 207.205 354.373 207.205 356.692 L 207.205 399.667 C 207.205 402.328 209.366 404.489 212.027 404.489 L 228.666 404.489 C 231.327 404.489 233.488 402.328 233.488 399.667 L 233.488 397.019 L 231.406 397.019 L 231.406 399.654 L 231.406 399.654 Z  M 263.605 362.594 L 225.939 362.594 C 223.699 362.594 221.881 364.412 221.881 366.652 L 221.881 392.25 C 221.881 394.489 223.699 396.307 225.939 396.307 L 243.724 396.307 L 243.724 402.091 L 234.779 402.091 L 234.779 404.172 L 254.751 404.172 L 254.751 402.091 L 245.806 402.091 L 245.806 396.307 L 263.591 396.307 C 265.831 396.307 267.649 394.489 267.649 392.25 L 267.649 366.652 C 267.662 364.412 265.844 362.594 263.605 362.594 L 263.605 362.594 Z  M 265.581 392.25 C 265.581 393.343 264.698 394.226 263.605 394.226 L 225.939 394.226 C 224.846 394.226 223.963 393.343 223.963 392.25 L 223.963 366.652 C 223.963 365.558 224.846 364.676 225.939 364.676 L 263.605 364.676 C 264.698 364.676 265.581 365.558 265.581 366.652 L 265.581 392.25 L 265.581 392.25 Z  M 225.491 390.642 L 264.053 390.642 L 264.053 367.824 L 225.491 367.824 L 225.491 390.642 Z  M 226.532 368.865 L 263.012 368.865 L 263.012 389.615 L 226.532 389.615 L 226.532 368.865 Z  M 244.778 367.508 C 245.49 367.508 246.069 366.928 246.069 366.217 C 246.069 365.506 245.49 364.926 244.778 364.926 C 244.067 364.926 243.487 365.506 243.487 366.217 C 243.487 366.928 244.067 367.508 244.778 367.508 Z  M 244.778 365.98 C 244.91 365.98 245.029 366.085 245.029 366.23 C 245.029 366.375 244.923 366.48 244.778 366.48 C 244.633 366.48 244.528 366.375 244.528 366.23 C 244.528 366.085 244.633 365.98 244.778 365.98 Z  M 244.778 391.051 C 243.975 391.051 243.316 391.709 243.316 392.513 C 243.316 393.317 243.975 393.975 244.778 393.975 C 245.582 393.975 246.241 393.317 246.241 392.513 C 246.228 391.696 245.582 391.051 244.778 391.051 Z  M 244.778 392.921 C 244.541 392.921 244.357 392.737 244.357 392.5 C 244.357 392.263 244.541 392.078 244.778 392.078 C 245.016 392.078 245.2 392.263 245.2 392.5 C 245.2 392.737 245.002 392.921 244.778 392.921 Z  M 218.93 398.442 C 218.93 399.245 219.589 399.904 220.393 399.904 C 221.196 399.904 221.855 399.245 221.855 398.442 C 221.855 397.638 221.196 396.979 220.393 396.979 C 219.576 396.992 218.93 397.638 218.93 398.442 Z  M 220.801 398.442 C 220.801 398.679 220.617 398.863 220.379 398.863 C 220.142 398.863 219.958 398.679 219.958 398.442 C 219.958 398.204 220.142 398.02 220.379 398.02 C 220.617 398.02 220.801 398.218 220.801 398.442 Z  M 228.297 361.909 L 228.297 358.773 L 212.027 358.773 L 212.027 364.886 L 221.249 364.886 L 221.249 363.846 L 213.068 363.846 L 213.068 359.814 L 227.256 359.814 L 227.256 361.909 L 228.297 361.909 L 228.297 361.909 Z " fill="rgb(0,0,0)"/><path d=" M 191.626 371.829 L 153.723 371.829 C 153.539 371.829 153.394 371.974 153.394 372.159 L 153.394 396.716 C 153.394 396.9 153.539 397.045 153.723 397.045 L 191.639 397.045 C 191.823 397.045 191.968 396.9 191.968 396.716 L 191.968 372.159 C 191.955 371.987 191.81 371.829 191.626 371.829 Z  M 191.296 396.386 L 154.052 396.386 L 154.052 372.488 L 191.296 372.488 L 191.296 396.386 Z  M 200.531 398.349 L 196.237 398.349 L 196.237 369.708 C 196.237 369.247 195.868 368.878 195.407 368.878 L 149.929 368.878 C 149.468 368.878 149.099 369.247 149.099 369.708 L 149.099 398.349 L 144.804 398.349 C 144.343 398.349 143.974 398.718 143.974 399.179 L 143.974 403.659 C 143.974 404.12 144.343 404.489 144.804 404.489 L 200.531 404.489 C 200.993 404.489 201.361 404.12 201.361 403.659 L 201.361 399.179 C 201.361 398.718 200.993 398.349 200.531 398.349 L 200.531 398.349 Z  M 150.746 370.538 L 194.59 370.538 L 194.59 398.362 L 150.746 398.362 L 150.746 370.538 Z  M 199.715 402.829 L 145.634 402.829 L 145.634 399.996 L 199.715 399.996 L 199.715 402.829 Z  M 191.902 400.76 L 190.993 400.76 C 190.875 400.76 190.796 400.852 190.796 400.958 L 190.796 401.867 C 190.796 401.985 190.888 402.064 190.993 402.064 L 191.902 402.064 C 192.021 402.064 192.1 401.972 192.1 401.867 L 192.1 400.958 C 192.1 400.852 192.008 400.76 191.902 400.76 Z  M 195.222 400.76 L 194.313 400.76 C 194.195 400.76 194.116 400.852 194.116 400.958 L 194.116 401.867 C 194.116 401.985 194.208 402.064 194.313 402.064 L 195.222 402.064 C 195.341 402.064 195.42 401.972 195.42 401.867 L 195.42 400.958 C 195.42 400.852 195.328 400.76 195.222 400.76 Z  M 188.609 400.76 L 178.148 400.76 C 178.03 400.76 177.951 400.852 177.951 400.958 L 177.951 401.867 C 177.951 401.985 178.043 402.064 178.148 402.064 L 188.609 402.064 C 188.727 402.064 188.806 401.972 188.806 401.867 L 188.806 400.958 C 188.806 400.852 188.714 400.76 188.609 400.76 L 188.609 400.76 Z " fill="rgb(60,53,51)"/><g transform="matrix(1,0,0,1,577.84,130.682)"><text transform="matrix(1,0,0,1,13.876,20.22)" style="font-family:&quot;Nunito Sans&quot;;font-weight:300;font-size:20px;font-style:normal;fill:#9900ff;stroke:none;">Development</text></g><path d=" M 675.807 399.654 C 675.807 401.169 674.582 402.394 673.067 402.394 L 656.428 402.394 C 654.913 402.394 653.687 401.169 653.687 399.654 L 653.687 356.692 C 653.687 355.519 654.649 354.558 655.822 354.558 L 673.673 354.558 C 674.845 354.558 675.807 355.519 675.807 356.692 L 675.807 362.054 L 677.889 362.054 L 677.889 356.692 C 677.889 354.36 675.992 352.476 673.673 352.476 L 655.822 352.476 C 653.49 352.476 651.606 354.373 651.606 356.692 L 651.606 399.667 C 651.606 402.328 653.766 404.489 656.428 404.489 L 673.067 404.489 C 675.728 404.489 677.889 402.328 677.889 399.667 L 677.889 397.019 L 675.807 397.019 L 675.807 399.654 L 675.807 399.654 Z  M 708.005 362.594 L 670.34 362.594 C 668.1 362.594 666.282 364.412 666.282 366.652 L 666.282 392.25 C 666.282 394.489 668.1 396.307 670.34 396.307 L 688.125 396.307 L 688.125 402.091 L 679.18 402.091 L 679.18 404.172 L 699.152 404.172 L 699.152 402.091 L 690.207 402.091 L 690.207 396.307 L 707.992 396.307 C 710.232 396.307 712.05 394.489 712.05 392.25 L 712.05 366.652 C 712.063 364.412 710.245 362.594 708.005 362.594 L 708.005 362.594 Z  M 709.981 392.25 C 709.981 393.343 709.099 394.226 708.005 394.226 L 670.34 394.226 C 669.246 394.226 668.364 393.343 668.364 392.25 L 668.364 366.652 C 668.364 365.558 669.246 364.676 670.34 364.676 L 708.005 364.676 C 709.099 364.676 709.981 365.558 709.981 366.652 L 709.981 392.25 L 709.981 392.25 Z  M 669.892 390.642 L 708.453 390.642 L 708.453 367.824 L 669.892 367.824 L 669.892 390.642 Z  M 670.933 368.865 L 707.412 368.865 L 707.412 389.615 L 670.933 389.615 L 670.933 368.865 Z  M 689.179 367.508 C 689.89 367.508 690.47 366.928 690.47 366.217 C 690.47 365.506 689.89 364.926 689.179 364.926 C 688.468 364.926 687.888 365.506 687.888 366.217 C 687.888 366.928 688.468 367.508 689.179 367.508 Z  M 689.179 365.98 C 689.311 365.98 689.429 366.085 689.429 366.23 C 689.429 366.375 689.324 366.48 689.179 366.48 C 689.034 366.48 688.929 366.375 688.929 366.23 C 688.929 366.085 689.034 365.98 689.179 365.98 Z  M 689.179 391.051 C 688.375 391.051 687.717 391.709 687.717 392.513 C 687.717 393.317 688.375 393.975 689.179 393.975 C 689.983 393.975 690.641 393.317 690.641 392.513 C 690.628 391.696 689.983 391.051 689.179 391.051 Z  M 689.179 392.921 C 688.942 392.921 688.757 392.737 688.757 392.5 C 688.757 392.263 688.942 392.078 689.179 392.078 C 689.416 392.078 689.601 392.263 689.601 392.5 C 689.601 392.737 689.403 392.921 689.179 392.921 Z  M 663.331 398.442 C 663.331 399.245 663.99 399.904 664.793 399.904 C 665.597 399.904 666.256 399.245 666.256 398.442 C 666.256 397.638 665.597 396.979 664.793 396.979 C 663.976 396.992 663.331 397.638 663.331 398.442 Z  M 665.202 398.442 C 665.202 398.679 665.017 398.863 664.78 398.863 C 664.543 398.863 664.359 398.679 664.359 398.442 C 664.359 398.204 664.543 398.02 664.78 398.02 C 665.017 398.02 665.202 398.218 665.202 398.442 Z  M 672.698 361.909 L 672.698 358.773 L 656.428 358.773 L 656.428 364.886 L 665.65 364.886 L 665.65 363.846 L 657.468 363.846 L 657.468 359.814 L 671.657 359.814 L 671.657 361.909 L 672.698 361.909 L 672.698 361.909 Z " fill="rgb(0,0,0)"/><path d=" M 636.026 371.829 L 598.124 371.829 C 597.939 371.829 597.794 371.974 597.794 372.159 L 597.794 396.716 C 597.794 396.9 597.939 397.045 598.124 397.045 L 636.039 397.045 C 636.224 397.045 636.369 396.9 636.369 396.716 L 636.369 372.159 C 636.356 371.987 636.211 371.829 636.026 371.829 Z  M 635.697 396.386 L 598.453 396.386 L 598.453 372.488 L 635.697 372.488 L 635.697 396.386 Z  M 644.932 398.349 L 640.637 398.349 L 640.637 369.708 C 640.637 369.247 640.268 368.878 639.807 368.878 L 594.329 368.878 C 593.868 368.878 593.499 369.247 593.499 369.708 L 593.499 398.349 L 589.205 398.349 C 588.743 398.349 588.375 398.718 588.375 399.179 L 588.375 403.659 C 588.375 404.12 588.743 404.489 589.205 404.489 L 644.932 404.489 C 645.393 404.489 645.762 404.12 645.762 403.659 L 645.762 399.179 C 645.762 398.718 645.393 398.349 644.932 398.349 L 644.932 398.349 Z  M 595.146 370.538 L 638.99 370.538 L 638.99 398.362 L 595.146 398.362 L 595.146 370.538 Z  M 644.115 402.829 L 590.035 402.829 L 590.035 399.996 L 644.115 399.996 L 644.115 402.829 Z  M 636.303 400.76 L 635.394 400.76 C 635.275 400.76 635.196 400.852 635.196 400.958 L 635.196 401.867 C 635.196 401.985 635.288 402.064 635.394 402.064 L 636.303 402.064 C 636.421 402.064 636.501 401.972 636.501 401.867 L 636.501 400.958 C 636.501 400.852 636.408 400.76 636.303 400.76 Z  M 639.623 400.76 L 638.714 400.76 C 638.595 400.76 638.516 400.852 638.516 400.958 L 638.516 401.867 C 638.516 401.985 638.608 402.064 638.714 402.064 L 639.623 402.064 C 639.741 402.064 639.82 401.972 639.82 401.867 L 639.82 400.958 C 639.82 400.852 639.728 400.76 639.623 400.76 Z  M 633.009 400.76 L 622.549 400.76 C 622.43 400.76 622.351 400.852 622.351 400.958 L 622.351 401.867 C 622.351 401.985 622.443 402.064 622.549 402.064 L 633.009 402.064 C 633.128 402.064 633.207 401.972 633.207 401.867 L 633.207 400.958 C 633.207 400.852 633.115 400.76 633.009 400.76 L 633.009 400.76 Z " fill="rgb(60,53,51)"/><path d=" M 428.309 280.818 C 419.836 280.818 412.144 282.337 406.451 284.899 C 403.608 286.177 401.262 287.726 399.557 289.543 C 397.85 291.358 396.789 293.512 396.789 295.828 L 396.789 310.556 C 396.778 310.65 396.778 310.744 396.789 310.837 L 396.789 325.566 C 396.778 325.659 396.778 325.753 396.789 325.847 L 396.789 339.355 C 396.789 341.671 397.85 343.823 399.557 345.641 C 401.262 347.457 403.608 349.006 406.451 350.283 C 412.144 352.846 419.836 354.364 428.309 354.364 C 436.782 354.364 444.474 352.846 450.167 350.283 C 453.01 349.006 455.356 347.457 457.061 345.641 C 458.768 343.823 459.829 341.67 459.829 339.355 L 459.829 295.828 C 459.829 293.512 458.768 291.359 457.061 289.542 C 455.356 287.726 453.01 286.177 450.167 284.899 C 444.474 282.337 436.782 280.818 428.309 280.818 Z  M 428.309 283.82 C 436.417 283.82 443.728 285.339 448.9 287.667 C 451.485 288.827 453.526 290.189 454.856 291.607 C 456.189 293.025 456.827 294.414 456.827 295.828 C 456.827 297.24 456.188 298.63 454.856 300.05 C 453.526 301.468 451.485 302.828 448.9 303.988 C 443.728 306.316 436.417 307.835 428.309 307.835 C 420.201 307.835 412.89 306.316 407.718 303.988 C 405.133 302.828 403.092 301.467 401.76 300.05 C 400.431 298.63 399.791 297.239 399.791 295.828 C 399.791 294.415 400.431 293.025 401.762 291.606 C 403.092 290.187 405.133 288.827 407.718 287.666 C 412.89 285.341 420.201 283.82 428.309 283.82 Z  M 399.791 302.348 C 401.474 304.065 403.725 305.53 406.452 306.756 C 412.144 309.318 419.836 310.837 428.309 310.837 C 436.782 310.837 444.474 309.318 450.167 306.756 C 452.893 305.531 455.144 304.065 456.827 302.348 L 456.827 310.837 C 456.827 312.25 456.188 313.639 454.856 315.059 C 453.526 316.478 451.485 317.838 448.9 318.999 C 443.728 321.326 436.417 322.845 428.309 322.845 C 420.201 322.845 412.89 321.326 407.718 318.998 C 405.133 317.838 403.092 316.476 401.76 315.058 C 400.431 313.639 399.791 312.251 399.791 310.837 C 399.803 310.743 399.803 310.649 399.791 310.555 L 399.791 302.348 Z  M 399.791 317.357 C 401.474 319.074 403.725 320.539 406.452 321.765 C 412.144 324.328 419.836 325.847 428.309 325.847 C 436.782 325.847 444.474 324.328 450.167 321.765 C 452.893 320.541 455.144 319.074 456.827 317.357 L 456.827 325.847 C 456.827 327.259 456.188 328.649 454.856 330.069 C 453.526 331.487 451.485 332.847 448.9 334.007 C 443.728 336.337 436.417 337.854 428.309 337.854 C 420.201 337.854 412.89 336.335 407.718 334.007 C 405.133 332.847 403.092 331.486 401.76 330.069 C 400.431 328.647 399.791 327.257 399.791 325.847 C 399.803 325.753 399.803 325.658 399.791 325.564 L 399.791 317.357 Z  M 399.791 332.367 C 401.474 334.084 403.725 335.549 406.452 336.775 C 412.144 339.337 419.836 340.856 428.309 340.856 C 436.782 340.856 444.474 339.337 450.167 336.775 C 452.893 335.55 455.144 334.084 456.827 332.367 L 456.827 339.355 C 456.827 340.767 456.188 342.157 454.856 343.577 C 453.526 344.996 451.485 346.355 448.9 347.516 C 443.728 349.845 436.417 351.363 428.309 351.363 C 420.201 351.363 412.89 349.844 407.718 347.516 C 405.133 346.355 403.092 344.994 401.76 343.577 C 400.431 342.157 399.791 340.766 399.791 339.355 L 399.791 332.367 Z " fill="rgb(255,153,0)"/><g transform="matrix(1,0,0,1,398.805,130.682)"><text transform="matrix(1,0,0,1,0.04,20.22)" style="font-family:&quot;Nunito Sans&quot;;font-weight:300;font-size:20px;font-style:normal;fill:#9900ff;stroke:none;">Server</text></g><line x1="267.649" y1="212.887" x2="388.007" y2="213.355" vector-effect="non-scaling-stroke" stroke-width="2" stroke="rgb(0,150,136)" stroke-linejoin="miter" stroke-linecap="square" stroke-miterlimit="3"/><path d=" M 382.015 220.403 L 396.184 213.387 L 382.07 206.261 Z " fill="rgb(0,150,136)" stroke="none"/><line x1="267.649" y1="300.05" x2="388.007" y2="300.05" vector-effect="non-scaling-stroke" stroke-width="2" stroke="rgb(0,0,0)" stroke-linejoin="miter" stroke-linecap="square" stroke-miterlimit="3"/><path d=" M 381.588 307.121 L 395.73 300.05 L 381.588 292.979 Z " fill="rgb(0,0,0)" stroke="none"/><line x1="468.602" y1="213.355" x2="590.035" y2="214.529" vector-effect="non-scaling-stroke" stroke-width="2" stroke="rgb(0,0,0)" stroke-linejoin="miter" stroke-linecap="square" stroke-miterlimit="3"/><path d=" M 474.484 206.341 L 460.274 213.275 L 474.347 220.482 Z " fill="rgb(0,0,0)" stroke="none"/><line x1="468.602" y1="300.05" x2="588.375" y2="300.05" vector-effect="non-scaling-stroke" stroke-width="2" stroke="rgb(0,0,0)" stroke-linejoin="miter" stroke-linecap="square" stroke-miterlimit="3"/><path d=" M 474.567 292.979 L 460.425 300.05 L 474.567 307.121 Z " fill="rgb(0,0,0)" stroke="none"/><path d=" M 428.309 171.262 C 419.836 171.262 412.144 172.781 406.451 175.343 C 403.608 176.62 401.262 178.169 399.557 179.987 C 397.85 181.801 396.789 183.955 396.789 186.271 L 396.789 201 C 396.778 201.093 396.778 201.187 396.789 201.28 L 396.789 216.009 C 396.778 216.102 396.778 216.197 396.789 216.29 L 396.789 229.798 C 396.789 232.114 397.85 234.267 399.557 236.084 C 401.262 237.9 403.608 239.449 406.451 240.727 C 412.144 243.289 419.836 244.808 428.309 244.808 C 436.782 244.808 444.474 243.289 450.167 240.727 C 453.01 239.449 455.356 237.9 457.061 236.084 C 458.768 234.267 459.829 232.113 459.829 229.798 L 459.829 186.271 C 459.829 183.955 458.768 181.803 457.061 179.985 C 455.356 178.169 453.01 176.62 450.167 175.343 C 444.474 172.781 436.782 171.262 428.309 171.262 Z  M 428.309 174.263 C 436.417 174.263 443.728 175.782 448.9 178.11 C 451.485 179.271 453.526 180.632 454.856 182.05 C 456.189 183.469 456.827 184.857 456.827 186.271 C 456.827 187.683 456.188 189.073 454.856 190.493 C 453.526 191.912 451.485 193.271 448.9 194.432 C 443.728 196.76 436.417 198.279 428.309 198.279 C 420.201 198.279 412.89 196.76 407.718 194.432 C 405.133 193.271 403.092 191.91 401.76 190.493 C 400.431 189.073 399.791 187.682 399.791 186.271 C 399.791 184.859 400.431 183.469 401.762 182.049 C 403.092 180.63 405.133 179.271 407.718 178.109 C 412.89 175.784 420.201 174.263 428.309 174.263 Z  M 399.791 192.791 C 401.474 194.508 403.725 195.973 406.452 197.199 C 412.144 199.761 419.836 201.28 428.309 201.28 C 436.782 201.28 444.474 199.761 450.167 197.199 C 452.893 195.975 455.144 194.508 456.827 192.791 L 456.827 201.28 C 456.827 202.693 456.188 204.083 454.856 205.503 C 453.526 206.921 451.485 208.281 448.9 209.443 C 443.728 211.769 436.417 213.288 428.309 213.288 C 420.201 213.288 412.89 211.769 407.718 209.441 C 405.133 208.281 403.092 206.919 401.76 205.501 C 400.431 204.083 399.791 202.694 399.791 201.28 C 399.803 201.187 399.803 201.092 399.791 200.998 L 399.791 192.791 Z  M 399.791 207.801 C 401.474 209.518 403.725 210.983 406.452 212.209 C 412.144 214.771 419.836 216.29 428.309 216.29 C 436.782 216.29 444.474 214.771 450.167 212.209 C 452.893 210.984 455.144 209.518 456.827 207.801 L 456.827 216.29 C 456.827 217.702 456.188 219.092 454.856 220.512 C 453.526 221.93 451.485 223.29 448.9 224.451 C 443.728 226.78 436.417 228.297 428.309 228.297 C 420.201 228.297 412.89 226.778 407.718 224.451 C 405.133 223.29 403.092 221.929 401.76 220.512 C 400.431 219.091 399.791 217.701 399.791 216.29 C 399.803 216.196 399.803 216.101 399.791 216.008 L 399.791 207.801 Z  M 399.791 222.81 C 401.474 224.527 403.725 225.992 406.452 227.218 C 412.144 229.78 419.836 231.299 428.309 231.299 C 436.782 231.299 444.474 229.78 450.167 227.218 C 452.893 225.993 455.144 224.527 456.827 222.81 L 456.827 229.798 C 456.827 231.211 456.188 232.601 454.856 234.021 C 453.526 235.439 451.485 236.799 448.9 237.959 C 443.728 240.288 436.417 241.806 428.309 241.806 C 420.201 241.806 412.89 240.287 407.718 237.959 C 405.133 236.799 403.092 235.437 401.76 234.021 C 400.431 232.601 399.791 231.209 399.791 229.798 L 399.791 222.81 Z " fill="rgb(255,153,0)"/><g transform="matrix(1,0,0,1,393.805,361.64)"><text transform="matrix(1,0,0,1,0.18,13.174)" style="font-family:&quot;Actor&quot;;font-weight:400;font-size:14px;font-style:normal;fill:#000000;stroke:none;">DB Aplikasi</text></g><g transform="matrix(1,0,0,1,167.897,410.567)"><text transform="matrix(1,0,0,1,0.057,13.174)" style="font-family:&quot;Actor&quot;;font-weight:400;font-size:14px;font-style:normal;fill:#000000;stroke:none;">Workstation</text></g><g transform="matrix(1,0,0,1,380.305,250.03)"><text transform="matrix(1,0,0,1,0.331,13.174)" style="font-family:&quot;Actor&quot;;font-weight:400;font-size:14px;font-style:normal;fill:#000000;stroke:none;">Definisi Aplikasi</text></g><g transform="matrix(1,0,0,1,611.712,410.567)"><text transform="matrix(1,0,0,1,0.057,13.174)" style="font-family:&quot;Actor&quot;;font-weight:400;font-size:14px;font-style:normal;fill:#000000;stroke:none;">Workstation</text></g><g><path d=" M 189.983 214.647 L 198.19 214.647 L 198.19 206.44 L 189.983 206.44 L 189.983 214.647 Z  M 202.294 239.268 L 210.501 239.268 L 210.501 231.061 L 202.294 231.061 L 202.294 239.268 Z  M 189.983 239.268 L 198.19 239.268 L 198.19 231.061 L 189.983 231.061 L 189.983 239.268 Z  M 189.983 226.958 L 198.19 226.958 L 198.19 218.75 L 189.983 218.75 L 189.983 226.958 Z  M 202.294 226.958 L 210.501 226.958 L 210.501 218.75 L 202.294 218.75 L 202.294 226.958 Z  M 214.604 206.44 L 214.604 214.647 L 222.811 214.647 L 222.811 206.44 L 214.604 206.44 Z  M 202.294 214.647 L 210.501 214.647 L 210.501 206.44 L 202.294 206.44 L 202.294 214.647 Z  M 214.604 226.958 L 222.811 226.958 L 222.811 218.75 L 214.604 218.75 L 214.604 226.958 Z  M 214.604 239.268 L 222.811 239.268 L 222.811 231.061 L 214.604 231.061 L 214.604 239.268 Z " fill="rgb(0,0,0)"/><path d=" M 181.776 198.233 L 231.018 198.233 L 231.018 247.475 L 181.776 247.475 L 181.776 198.233 Z " fill="none"/></g><g transform="matrix(1,0,0,1,621.106,266.872)"><text transform="matrix(1,0,0,1,0.344,17.102)" style="font-family:&quot;Open Sans&quot;;font-weight:700;font-size:16px;font-style:normal;fill:#009688;stroke:none;">Epigoni</text><text transform="matrix(1,0,0,1,3.906,38.891)" style="font-family:&quot;Open Sans&quot;;font-weight:700;font-size:16px;font-style:normal;fill:#009688;stroke:none;">Studio</text></g><g><path d=" M 635.192 214.647 L 643.399 214.647 L 643.399 206.44 L 635.192 206.44 L 635.192 214.647 Z  M 647.502 239.268 L 655.709 239.268 L 655.709 231.061 L 647.502 231.061 L 647.502 239.268 Z  M 635.192 239.268 L 643.399 239.268 L 643.399 231.061 L 635.192 231.061 L 635.192 239.268 Z  M 635.192 226.958 L 643.399 226.958 L 643.399 218.75 L 635.192 218.75 L 635.192 226.958 Z  M 647.502 226.958 L 655.709 226.958 L 655.709 218.75 L 647.502 218.75 L 647.502 226.958 Z  M 659.813 206.44 L 659.813 214.647 L 668.02 214.647 L 668.02 206.44 L 659.813 206.44 Z  M 647.502 214.647 L 655.709 214.647 L 655.709 206.44 L 647.502 206.44 L 647.502 214.647 Z  M 659.813 226.958 L 668.02 226.958 L 668.02 218.75 L 659.813 218.75 L 659.813 226.958 Z  M 659.813 239.268 L 668.02 239.268 L 668.02 231.061 L 659.813 231.061 L 659.813 239.268 Z " fill="rgb(0,0,0)"/><path d=" M 626.984 198.233 L 676.227 198.233 L 676.227 247.475 L 626.984 247.475 L 626.984 198.233 Z " fill="none"/></g></g></svg>