<?xml version="1.0" standalone="no"?><!-- Generator: Gravit.io --><svg xmlns="http://www.w3.org/2000/svg" xmlns:xlink="http://www.w3.org/1999/xlink" style="isolation:isolate" viewBox="0 0 841.89 595.276" width="841.89" height="595.276"><defs><clipPath id="_clipPath_uZcblq3xh1AssJl7DB1ZillAB5taKrr1"><rect width="841.89" height="595.276"/></clipPath></defs><g clip-path="url(#_clipPath_uZcblq3xh1AssJl7DB1ZillAB5taKrr1)"><rect x="78.64" y="193.78" width="161.575" height="310.903" transform="matrix(1,0,0,1,0,0)" fill="rgb(235,235,235)"/><rect x="290.626" y="193.78" width="181.417" height="310.903" transform="matrix(1,0,0,1,0,0)" fill="rgb(235,235,235)"/><g transform="matrix(1,0,0,1,127.892,207.955)"><text transform="matrix(1,0,0,1,0.15,20.22)" style="font-family:&quot;Nunito Sans&quot;;font-weight:300;font-size:20px;font-style:normal;fill:#9900ff;stroke:none;">Client</text></g><g transform="matrix(1,0,0,1,101.427,313.636)"><text transform="matrix(1,0,0,1,20.555,21.377)" style="font-family:&quot;Open Sans&quot;;font-weight:700;font-size:20px;font-style:normal;fill:#009688;stroke:none;">Epigoni</text><text transform="matrix(1,0,0,1,0.003,48.613)" style="font-family:&quot;Open Sans&quot;;font-weight:700;font-size:20px;font-style:normal;fill:#009688;stroke:none;">Application</text></g><path d=" M 184.437 476.926 C 184.437 478.441 183.212 479.667 181.696 479.667 L 165.057 479.667 C 163.542 479.667 162.317 478.441 162.317 476.926 L 162.317 433.965 C 162.317 432.792 163.279 431.83 164.451 431.83 L 182.302 431.83 C 183.475 431.83 184.437 432.792 184.437 433.965 L 184.437 439.327 L 186.518 439.327 L 186.518 433.965 C 186.518 431.633 184.621 429.749 182.302 429.749 L 164.451 429.749 C 162.119 429.749 160.235 431.646 160.235 433.965 L 160.235 476.939 C 160.235 479.601 162.396 481.761 165.057 481.761 L 181.696 481.761 C 184.358 481.761 186.518 479.601 186.518 476.939 L 186.518 474.291 L 184.437 474.291 L 184.437 476.926 L 184.437 476.926 Z  M 216.635 439.867 L 178.969 439.867 C 176.73 439.867 174.912 441.685 174.912 443.924 L 174.912 469.522 C 174.912 471.762 176.73 473.58 178.969 473.58 L 196.755 473.58 L 196.755 479.364 L 187.809 479.364 L 187.809 481.445 L 207.782 481.445 L 207.782 479.364 L 198.836 479.364 L 198.836 473.58 L 216.622 473.58 C 218.861 473.58 220.679 471.762 220.679 469.522 L 220.679 443.924 C 220.693 441.685 218.875 439.867 216.635 439.867 L 216.635 439.867 Z  M 218.611 469.522 C 218.611 470.616 217.728 471.498 216.635 471.498 L 178.969 471.498 C 177.876 471.498 176.993 470.616 176.993 469.522 L 176.993 443.924 C 176.993 442.831 177.876 441.948 178.969 441.948 L 216.635 441.948 C 217.728 441.948 218.611 442.831 218.611 443.924 L 218.611 469.522 L 218.611 469.522 Z  M 178.521 467.915 L 217.083 467.915 L 217.083 445.097 L 178.521 445.097 L 178.521 467.915 Z  M 179.562 446.138 L 216.042 446.138 L 216.042 466.887 L 179.562 466.887 L 179.562 446.138 Z  M 197.809 444.781 C 198.52 444.781 199.1 444.201 199.1 443.49 C 199.1 442.778 198.52 442.199 197.809 442.199 C 197.097 442.199 196.518 442.778 196.518 443.49 C 196.518 444.201 197.097 444.781 197.809 444.781 Z  M 197.809 443.253 C 197.94 443.253 198.059 443.358 198.059 443.503 C 198.059 443.648 197.954 443.753 197.809 443.753 C 197.664 443.753 197.558 443.648 197.558 443.503 C 197.558 443.358 197.664 443.253 197.809 443.253 Z  M 197.809 468.323 C 197.005 468.323 196.346 468.982 196.346 469.786 C 196.346 470.589 197.005 471.248 197.809 471.248 C 198.612 471.248 199.271 470.589 199.271 469.786 C 199.258 468.969 198.612 468.323 197.809 468.323 Z  M 197.809 470.194 C 197.572 470.194 197.387 470.01 197.387 469.773 C 197.387 469.535 197.572 469.351 197.809 469.351 C 198.046 469.351 198.23 469.535 198.23 469.773 C 198.23 470.01 198.033 470.194 197.809 470.194 Z  M 171.961 475.714 C 171.961 476.518 172.619 477.177 173.423 477.177 C 174.227 477.177 174.885 476.518 174.885 475.714 C 174.885 474.911 174.227 474.252 173.423 474.252 C 172.606 474.265 171.961 474.911 171.961 475.714 Z  M 173.831 475.714 C 173.831 475.951 173.647 476.136 173.41 476.136 C 173.173 476.136 172.988 475.951 172.988 475.714 C 172.988 475.477 173.173 475.293 173.41 475.293 C 173.647 475.293 173.831 475.49 173.831 475.714 Z  M 181.328 439.182 L 181.328 436.046 L 165.057 436.046 L 165.057 442.159 L 174.279 442.159 L 174.279 441.118 L 166.098 441.118 L 166.098 437.087 L 180.287 437.087 L 180.287 439.182 L 181.328 439.182 L 181.328 439.182 Z " fill="rgb(0,0,0)"/><path d=" M 144.656 449.102 L 106.753 449.102 C 106.569 449.102 106.424 449.247 106.424 449.431 L 106.424 473.988 C 106.424 474.173 106.569 474.318 106.753 474.318 L 144.669 474.318 C 144.854 474.318 144.998 474.173 144.998 473.988 L 144.998 449.431 C 144.985 449.26 144.84 449.102 144.656 449.102 Z  M 144.327 473.659 L 107.083 473.659 L 107.083 449.761 L 144.327 449.761 L 144.327 473.659 Z  M 153.562 475.622 L 149.267 475.622 L 149.267 446.981 C 149.267 446.52 148.898 446.151 148.437 446.151 L 102.959 446.151 C 102.498 446.151 102.129 446.52 102.129 446.981 L 102.129 475.622 L 97.834 475.622 C 97.373 475.622 97.004 475.991 97.004 476.452 L 97.004 480.931 C 97.004 481.392 97.373 481.761 97.834 481.761 L 153.562 481.761 C 154.023 481.761 154.392 481.392 154.392 480.931 L 154.392 476.452 C 154.392 475.991 154.023 475.622 153.562 475.622 L 153.562 475.622 Z  M 103.776 447.811 L 147.62 447.811 L 147.62 475.635 L 103.776 475.635 L 103.776 447.811 Z  M 152.745 480.101 L 98.664 480.101 L 98.664 477.269 L 152.745 477.269 L 152.745 480.101 Z  M 144.933 478.033 L 144.024 478.033 C 143.905 478.033 143.826 478.125 143.826 478.231 L 143.826 479.14 C 143.826 479.258 143.918 479.337 144.024 479.337 L 144.933 479.337 C 145.051 479.337 145.13 479.245 145.13 479.14 L 145.13 478.231 C 145.13 478.125 145.038 478.033 144.933 478.033 Z  M 148.253 478.033 L 147.343 478.033 C 147.225 478.033 147.146 478.125 147.146 478.231 L 147.146 479.14 C 147.146 479.258 147.238 479.337 147.343 479.337 L 148.253 479.337 C 148.371 479.337 148.45 479.245 148.45 479.14 L 148.45 478.231 C 148.45 478.125 148.358 478.033 148.253 478.033 Z  M 141.639 478.033 L 131.179 478.033 C 131.06 478.033 130.981 478.125 130.981 478.231 L 130.981 479.14 C 130.981 479.258 131.073 479.337 131.179 479.337 L 141.639 479.337 C 141.758 479.337 141.837 479.245 141.837 479.14 L 141.837 478.231 C 141.837 478.125 141.744 478.033 141.639 478.033 L 141.639 478.033 Z " fill="rgb(60,53,51)"/><rect x="523.58" y="193.78" width="161.575" height="310.903" transform="matrix(1,0,0,1,0,0)" fill="rgb(235,235,235)"/><g transform="matrix(1,0,0,1,530.87,207.955)"><text transform="matrix(1,0,0,1,13.876,20.22)" style="font-family:&quot;Nunito Sans&quot;;font-weight:300;font-size:20px;font-style:normal;fill:#9900ff;stroke:none;">Development</text></g><g transform="matrix(1,0,0,1,565.743,313.636)"><text transform="matrix(1,0,0,1,0.055,21.377)" style="font-family:&quot;Open Sans&quot;;font-weight:700;font-size:20px;font-style:normal;fill:#009688;stroke:none;">Epigoni</text><text transform="matrix(1,0,0,1,4.508,48.613)" style="font-family:&quot;Open Sans&quot;;font-weight:700;font-size:20px;font-style:normal;fill:#009688;stroke:none;">Studio</text></g><path d=" M 628.837 476.926 C 628.837 478.441 627.612 479.667 626.097 479.667 L 609.458 479.667 C 607.943 479.667 606.718 478.441 606.718 476.926 L 606.718 433.965 C 606.718 432.792 607.679 431.83 608.852 431.83 L 626.703 431.83 C 627.876 431.83 628.837 432.792 628.837 433.965 L 628.837 439.327 L 630.919 439.327 L 630.919 433.965 C 630.919 431.633 629.022 429.749 626.703 429.749 L 608.852 429.749 C 606.52 429.749 604.636 431.646 604.636 433.965 L 604.636 476.939 C 604.636 479.601 606.797 481.761 609.458 481.761 L 626.097 481.761 C 628.758 481.761 630.919 479.601 630.919 476.939 L 630.919 474.291 L 628.837 474.291 L 628.837 476.926 L 628.837 476.926 Z  M 661.036 439.867 L 623.37 439.867 C 621.13 439.867 619.312 441.685 619.312 443.924 L 619.312 469.522 C 619.312 471.762 621.13 473.58 623.37 473.58 L 641.155 473.58 L 641.155 479.364 L 632.21 479.364 L 632.21 481.445 L 652.182 481.445 L 652.182 479.364 L 643.237 479.364 L 643.237 473.58 L 661.022 473.58 C 663.262 473.58 665.08 471.762 665.08 469.522 L 665.08 443.924 C 665.093 441.685 663.275 439.867 661.036 439.867 L 661.036 439.867 Z  M 663.012 469.522 C 663.012 470.616 662.129 471.498 661.036 471.498 L 623.37 471.498 C 622.277 471.498 621.394 470.616 621.394 469.522 L 621.394 443.924 C 621.394 442.831 622.277 441.948 623.37 441.948 L 661.036 441.948 C 662.129 441.948 663.012 442.831 663.012 443.924 L 663.012 469.522 L 663.012 469.522 Z  M 622.922 467.915 L 661.483 467.915 L 661.483 445.097 L 622.922 445.097 L 622.922 467.915 Z  M 623.963 446.138 L 660.443 446.138 L 660.443 466.887 L 623.963 466.887 L 623.963 446.138 Z  M 642.209 444.781 C 642.921 444.781 643.5 444.201 643.5 443.49 C 643.5 442.778 642.921 442.199 642.209 442.199 C 641.498 442.199 640.918 442.778 640.918 443.49 C 640.918 444.201 641.498 444.781 642.209 444.781 Z  M 642.209 443.253 C 642.341 443.253 642.46 443.358 642.46 443.503 C 642.46 443.648 642.354 443.753 642.209 443.753 C 642.064 443.753 641.959 443.648 641.959 443.503 C 641.959 443.358 642.064 443.253 642.209 443.253 Z  M 642.209 468.323 C 641.406 468.323 640.747 468.982 640.747 469.786 C 640.747 470.589 641.406 471.248 642.209 471.248 C 643.013 471.248 643.672 470.589 643.672 469.786 C 643.659 468.969 643.013 468.323 642.209 468.323 Z  M 642.209 470.194 C 641.972 470.194 641.788 470.01 641.788 469.773 C 641.788 469.535 641.972 469.351 642.209 469.351 C 642.446 469.351 642.631 469.535 642.631 469.773 C 642.631 470.01 642.433 470.194 642.209 470.194 Z  M 616.361 475.714 C 616.361 476.518 617.02 477.177 617.824 477.177 C 618.627 477.177 619.286 476.518 619.286 475.714 C 619.286 474.911 618.627 474.252 617.824 474.252 C 617.007 474.265 616.361 474.911 616.361 475.714 Z  M 618.232 475.714 C 618.232 475.951 618.048 476.136 617.81 476.136 C 617.573 476.136 617.389 475.951 617.389 475.714 C 617.389 475.477 617.573 475.293 617.81 475.293 C 618.048 475.293 618.232 475.49 618.232 475.714 Z  M 625.728 439.182 L 625.728 436.046 L 609.458 436.046 L 609.458 442.159 L 618.68 442.159 L 618.68 441.118 L 610.499 441.118 L 610.499 437.087 L 624.687 437.087 L 624.687 439.182 L 625.728 439.182 L 625.728 439.182 Z " fill="rgb(0,0,0)"/><path d=" M 589.057 449.102 L 551.154 449.102 C 550.969 449.102 550.825 449.247 550.825 449.431 L 550.825 473.988 C 550.825 474.173 550.969 474.318 551.154 474.318 L 589.07 474.318 C 589.254 474.318 589.399 474.173 589.399 473.988 L 589.399 449.431 C 589.386 449.26 589.241 449.102 589.057 449.102 Z  M 588.727 473.659 L 551.483 473.659 L 551.483 449.761 L 588.727 449.761 L 588.727 473.659 Z  M 597.962 475.622 L 593.668 475.622 L 593.668 446.981 C 593.668 446.52 593.299 446.151 592.838 446.151 L 547.36 446.151 C 546.899 446.151 546.53 446.52 546.53 446.981 L 546.53 475.622 L 542.235 475.622 C 541.774 475.622 541.405 475.991 541.405 476.452 L 541.405 480.931 C 541.405 481.392 541.774 481.761 542.235 481.761 L 597.962 481.761 C 598.424 481.761 598.792 481.392 598.792 480.931 L 598.792 476.452 C 598.792 475.991 598.424 475.622 597.962 475.622 L 597.962 475.622 Z  M 548.177 447.811 L 592.021 447.811 L 592.021 475.635 L 548.177 475.635 L 548.177 447.811 Z  M 597.146 480.101 L 543.065 480.101 L 543.065 477.269 L 597.146 477.269 L 597.146 480.101 Z  M 589.333 478.033 L 588.424 478.033 C 588.306 478.033 588.227 478.125 588.227 478.231 L 588.227 479.14 C 588.227 479.258 588.319 479.337 588.424 479.337 L 589.333 479.337 C 589.452 479.337 589.531 479.245 589.531 479.14 L 589.531 478.231 C 589.531 478.125 589.439 478.033 589.333 478.033 Z  M 592.653 478.033 L 591.744 478.033 C 591.626 478.033 591.547 478.125 591.547 478.231 L 591.547 479.14 C 591.547 479.258 591.639 479.337 591.744 479.337 L 592.653 479.337 C 592.772 479.337 592.851 479.245 592.851 479.14 L 592.851 478.231 C 592.851 478.125 592.759 478.033 592.653 478.033 Z  M 586.04 478.033 L 575.579 478.033 C 575.461 478.033 575.382 478.125 575.382 478.231 L 575.382 479.14 C 575.382 479.258 575.474 479.337 575.579 479.337 L 586.04 479.337 C 586.158 479.337 586.237 479.245 586.237 479.14 L 586.237 478.231 C 586.237 478.125 586.145 478.033 586.04 478.033 L 586.04 478.033 Z " fill="rgb(60,53,51)"/><path d=" M 381.339 372.713 C 372.867 372.713 365.174 374.232 359.481 376.794 C 356.638 378.071 354.292 379.62 352.587 381.438 C 350.881 383.253 349.82 385.407 349.82 387.722 L 349.82 402.451 C 349.808 402.544 349.808 402.639 349.82 402.732 L 349.82 417.461 C 349.808 417.554 349.808 417.648 349.82 417.741 L 349.82 431.25 C 349.82 433.566 350.881 435.718 352.587 437.536 C 354.292 439.352 356.638 440.901 359.481 442.178 C 365.174 444.74 372.867 446.259 381.339 446.259 C 389.812 446.259 397.504 444.74 403.198 442.178 C 406.04 440.901 408.386 439.352 410.091 437.536 C 411.798 435.718 412.859 433.564 412.859 431.25 L 412.859 387.722 C 412.859 385.407 411.798 383.254 410.091 381.437 C 408.386 379.62 406.04 378.071 403.198 376.794 C 397.504 374.232 389.812 372.713 381.339 372.713 Z  M 381.339 375.715 C 389.447 375.715 396.759 377.234 401.931 379.562 C 404.515 380.722 406.557 382.083 407.887 383.502 C 409.219 384.92 409.857 386.309 409.857 387.722 C 409.857 389.135 409.218 390.525 407.887 391.945 C 406.557 393.363 404.515 394.723 401.931 395.883 C 396.759 398.211 389.447 399.73 381.339 399.73 C 373.231 399.73 365.92 398.211 360.748 395.883 C 358.163 394.723 356.122 393.362 354.791 391.945 C 353.461 390.525 352.821 389.133 352.821 387.722 C 352.821 386.31 353.461 384.92 354.792 383.5 C 356.122 382.082 358.163 380.722 360.748 379.56 C 365.92 377.235 373.231 375.715 381.339 375.715 Z  M 352.821 394.243 C 354.504 395.96 356.755 397.425 359.483 398.651 C 365.174 401.213 372.867 402.732 381.339 402.732 C 389.812 402.732 397.504 401.213 403.198 398.651 C 405.923 397.426 408.175 395.96 409.857 394.243 L 409.857 402.732 C 409.857 404.144 409.218 405.534 407.887 406.954 C 406.557 408.372 404.515 409.732 401.931 410.894 C 396.759 413.22 389.447 414.739 381.339 414.739 C 373.231 414.739 365.92 413.22 360.748 410.893 C 358.163 409.732 356.122 408.371 354.791 406.953 C 353.461 405.534 352.821 404.146 352.821 402.732 C 352.833 402.638 352.833 402.543 352.821 402.45 L 352.821 394.243 Z  M 352.821 409.252 C 354.504 410.969 356.755 412.434 359.483 413.66 C 365.174 416.222 372.867 417.741 381.339 417.741 C 389.812 417.741 397.504 416.222 403.198 413.66 C 405.923 412.435 408.175 410.969 409.857 409.252 L 409.857 417.741 C 409.857 419.154 409.218 420.544 407.887 421.963 C 406.557 423.382 404.515 424.742 401.931 425.902 C 396.759 428.231 389.447 429.749 381.339 429.749 C 373.231 429.749 365.92 428.23 360.748 425.902 C 358.163 424.742 356.122 423.38 354.791 421.963 C 353.461 420.542 352.821 419.152 352.821 417.741 C 352.833 417.648 352.833 417.553 352.821 417.459 L 352.821 409.252 Z  M 352.821 424.261 C 354.504 425.979 356.755 427.443 359.483 428.67 C 365.174 431.232 372.867 432.751 381.339 432.751 C 389.812 432.751 397.504 431.232 403.198 428.67 C 405.923 427.445 408.175 425.979 409.857 424.261 L 409.857 431.25 C 409.857 432.662 409.218 434.052 407.887 435.472 C 406.557 436.89 404.515 438.25 401.931 439.41 C 396.759 441.74 389.447 443.257 381.339 443.257 C 373.231 443.257 365.92 441.738 360.748 439.41 C 358.163 438.25 356.122 436.889 354.791 435.472 C 353.461 434.052 352.821 432.661 352.821 431.25 L 352.821 424.261 Z " fill="rgb(255,153,0)"/><g transform="matrix(1,0,0,1,351.835,207.955)"><text transform="matrix(1,0,0,1,0.04,20.22)" style="font-family:&quot;Nunito Sans&quot;;font-weight:300;font-size:20px;font-style:normal;fill:#9900ff;stroke:none;">Server</text></g><line x1="240.215" y1="290.394" x2="341.038" y2="290.628" vector-effect="non-scaling-stroke" stroke-width="2" stroke="rgb(0,150,136)" stroke-linejoin="miter" stroke-linecap="square" stroke-miterlimit="3"/><path d=" M 326.879 297.666 L 341.038 290.628 L 326.912 283.524 Z " fill="rgb(0,150,136)" stroke="none"/><line x1="240.215" y1="406.897" x2="341.038" y2="407.131" vector-effect="non-scaling-stroke" stroke-width="2" stroke="rgb(0,0,0)" stroke-linejoin="miter" stroke-linecap="square" stroke-miterlimit="3"/><path d=" M 326.879 414.169 L 341.038 407.131 L 326.912 400.027 Z " fill="rgb(0,0,0)" stroke="none"/><line x1="421.632" y1="290.628" x2="522.455" y2="290.862" vector-effect="non-scaling-stroke" stroke-width="2" stroke="rgb(0,0,0)" stroke-linejoin="miter" stroke-linecap="square" stroke-miterlimit="3"/><path d=" M 435.791 283.59 L 421.632 290.628 L 435.758 297.732 Z " fill="rgb(0,0,0)" stroke="none"/><line x1="421.632" y1="407.131" x2="522.455" y2="407.365" vector-effect="non-scaling-stroke" stroke-width="2" stroke="rgb(0,0,0)" stroke-linejoin="miter" stroke-linecap="square" stroke-miterlimit="3"/><path d=" M 435.791 400.093 L 421.632 407.131 L 435.758 414.235 Z " fill="rgb(0,0,0)" stroke="none"/><path d=" M 381.339 253.621 C 372.867 253.621 365.174 255.14 359.481 257.702 C 356.638 258.979 354.292 260.528 352.587 262.346 C 350.881 264.16 349.82 266.314 349.82 268.63 L 349.82 283.359 C 349.808 283.452 349.808 283.546 349.82 283.64 L 349.82 298.368 C 349.808 298.462 349.808 298.556 349.82 298.649 L 349.82 312.158 C 349.82 314.474 350.881 316.626 352.587 318.444 C 354.292 320.26 356.638 321.809 359.481 323.086 C 365.174 325.648 372.867 327.167 381.339 327.167 C 389.812 327.167 397.504 325.648 403.198 323.086 C 406.04 321.809 408.386 320.26 410.091 318.444 C 411.798 316.626 412.859 314.472 412.859 312.158 L 412.859 268.63 C 412.859 266.314 411.798 264.162 410.091 262.344 C 408.386 260.528 406.04 258.979 403.198 257.702 C 397.504 255.14 389.812 253.621 381.339 253.621 Z  M 381.339 256.623 C 389.447 256.623 396.759 258.142 401.931 260.47 C 404.515 261.63 406.557 262.991 407.887 264.41 C 409.219 265.828 409.857 267.216 409.857 268.63 C 409.857 270.043 409.218 271.432 407.887 272.852 C 406.557 274.271 404.515 275.631 401.931 276.791 C 396.759 279.119 389.447 280.638 381.339 280.638 C 373.231 280.638 365.92 279.119 360.748 276.791 C 358.163 275.631 356.122 274.269 354.791 272.852 C 353.461 271.432 352.821 270.041 352.821 268.63 C 352.821 267.218 353.461 265.828 354.792 264.408 C 356.122 262.99 358.163 261.63 360.748 260.468 C 365.92 258.143 373.231 256.623 381.339 256.623 Z  M 352.821 275.15 C 354.504 276.867 356.755 278.332 359.483 279.559 C 365.174 282.121 372.867 283.64 381.339 283.64 C 389.812 283.64 397.504 282.121 403.198 279.559 C 405.923 278.334 408.175 276.867 409.857 275.15 L 409.857 283.64 C 409.857 285.052 409.218 286.442 407.887 287.862 C 406.557 289.28 404.515 290.64 401.931 291.802 C 396.759 294.128 389.447 295.647 381.339 295.647 C 373.231 295.647 365.92 294.128 360.748 291.8 C 358.163 290.64 356.122 289.279 354.791 287.86 C 353.461 286.442 352.821 285.054 352.821 283.64 C 352.833 283.546 352.833 283.451 352.821 283.357 L 352.821 275.15 Z  M 352.821 290.16 C 354.504 291.877 356.755 293.342 359.483 294.568 C 365.174 297.13 372.867 298.649 381.339 298.649 C 389.812 298.649 397.504 297.13 403.198 294.568 C 405.923 293.343 408.175 291.877 409.857 290.16 L 409.857 298.649 C 409.857 300.061 409.218 301.451 407.887 302.871 C 406.557 304.29 404.515 305.649 401.931 306.81 C 396.759 309.139 389.447 310.657 381.339 310.657 C 373.231 310.657 365.92 309.138 360.748 306.81 C 358.163 305.649 356.122 304.288 354.791 302.871 C 353.461 301.45 352.821 300.06 352.821 298.649 C 352.833 298.555 352.833 298.461 352.821 298.367 L 352.821 290.16 Z  M 352.821 305.169 C 354.504 306.886 356.755 308.351 359.483 309.577 C 365.174 312.14 372.867 313.659 381.339 313.659 C 389.812 313.659 397.504 312.14 403.198 309.577 C 405.923 308.353 408.175 306.886 409.857 305.169 L 409.857 312.158 C 409.857 313.57 409.218 314.96 407.887 316.38 C 406.557 317.798 404.515 319.158 401.931 320.318 C 396.759 322.648 389.447 324.165 381.339 324.165 C 373.231 324.165 365.92 322.646 360.748 320.318 C 358.163 319.158 356.122 317.797 354.791 316.38 C 353.461 314.96 352.821 313.568 352.821 312.158 L 352.821 305.169 Z " fill="rgb(255,153,0)"/><g transform="matrix(1,0,0,1,346.835,453.535)"><text transform="matrix(1,0,0,1,0.18,13.174)" style="font-family:&quot;Actor&quot;;font-weight:400;font-size:14px;font-style:normal;fill:#000000;stroke:none;">DB Aplikasi</text></g><g transform="matrix(1,0,0,1,120.927,487.84)"><text transform="matrix(1,0,0,1,0.057,13.174)" style="font-family:&quot;Actor&quot;;font-weight:400;font-size:14px;font-style:normal;fill:#000000;stroke:none;">Workstation</text></g><g transform="matrix(1,0,0,1,333.335,332.389)"><text transform="matrix(1,0,0,1,0.331,13.174)" style="font-family:&quot;Actor&quot;;font-weight:400;font-size:14px;font-style:normal;fill:#000000;stroke:none;">Definisi Aplikasi</text></g><g transform="matrix(1,0,0,1,564.743,487.84)"><text transform="matrix(1,0,0,1,0.057,13.174)" style="font-family:&quot;Actor&quot;;font-weight:400;font-size:14px;font-style:normal;fill:#000000;stroke:none;">Workstation</text></g></g></svg>